<svg width="50" height="50" viewBox="0 0 50 50" fill="none" xmlns="http://www.w3.org/2000/svg">
<path d="M37.4454 17.6845C37.4454 19.0639 36.8974 20.3869 35.9219 21.3624C34.9465 22.3378 33.6235 22.8858 32.2441 22.8858C30.8646 22.8858 29.5416 22.3378 28.5662 21.3624C27.5907 20.3869 27.0427 19.0639 27.0427 17.6845C27.0427 16.305 27.5907 14.982 28.5662 14.0065C29.5416 13.0311 30.8646 12.4831 32.2441 12.4831C33.6235 12.4831 34.9465 13.0311 35.9219 14.0065C36.8974 14.982 37.4454 16.305 37.4454 17.6845V17.6845ZM37.4329 31.9694C37.3186 35.2751 36.4933 38.5173 35.0132 41.4754C33.6495 44.0544 31.6018 46.2079 29.0948 47.6998C26.5878 49.1917 23.7183 49.9642 20.8012 49.9328H18.7206V38.4898C18.7113 36.5614 17.9412 34.7146 16.5776 33.351C15.214 31.9874 13.3672 31.2172 11.4388 31.2079H-0.00409045V29.1274C-0.0355861 26.2102 0.73698 23.3407 2.22886 20.8337C3.72073 18.3267 5.87428 16.279 8.45325 14.9153C11.4113 13.4352 14.6535 12.6099 17.9592 12.4956C20.9902 8.58052 24.8827 5.41664 29.3344 3.24955C33.7862 1.08246 38.6775 -0.0295346 43.6287 -0.000101994V-0.000101994C44.4525 -0.00530794 45.2693 0.152158 46.0322 0.463266C46.7951 0.774375 47.4891 1.23301 48.0743 1.81287C48.6596 2.39273 49.1247 3.08241 49.4428 3.84237C49.761 4.60233 49.9261 5.41763 49.9285 6.24151C49.9638 11.2019 48.8547 16.1037 46.6875 20.5658C44.5203 25.028 41.3534 28.9302 37.4329 31.9694V31.9694ZM4.33172 27.0469H9.03787C10.583 23.6056 12.398 20.2921 14.466 17.1373C13.0296 17.4714 11.6378 17.9743 10.3195 18.6353C8.73399 19.4725 7.36659 20.6694 6.32681 22.1301C5.28703 23.5908 4.60376 25.2746 4.33172 27.0469V27.0469ZM32.7912 35.4626C29.6364 37.5306 26.3229 39.3456 22.8817 40.8907V45.5969C24.6539 45.3249 26.3378 44.6416 27.7985 43.6018C29.2591 42.562 30.456 41.1946 31.2933 39.6091C31.9542 38.2908 32.4571 36.899 32.7912 35.4626V35.4626ZM45.7675 6.18325C45.7523 5.64162 45.5264 5.12727 45.1379 4.74961C44.7493 4.37194 44.2288 4.16076 43.6869 4.16097C32.9514 4.46681 25.6904 8.58003 18.6832 18.3544C16.7278 21.1698 15.0083 24.1419 13.5422 27.2404C15.814 27.6635 17.9044 28.7645 19.5384 30.3985C21.1724 32.0325 22.2734 34.1229 22.6965 36.3947C25.795 34.9286 28.7671 33.2091 31.5824 31.2537C41.3484 24.2381 45.4616 16.9771 45.7675 6.18325ZM12.7329 37.1978C13.8954 38.3723 14.5475 39.9581 14.5475 41.6106C14.5475 43.2632 13.8954 44.8489 12.7329 46.0234C10.8459 47.9084 5.19722 49.0714 2.85455 49.4854L-0.0706673 49.9993L0.443223 47.0741C0.859328 44.7314 2.02026 39.0828 3.90522 37.1957C5.09475 36.0611 6.6756 35.4283 8.31947 35.4287C9.96333 35.4291 11.5439 36.0626 12.7329 37.1978V37.1978ZM10.3985 41.6106C10.3993 41.3373 10.3458 41.0665 10.2411 40.8141C10.1365 40.5616 9.9828 40.3323 9.78894 40.1397C9.39879 39.7496 8.86969 39.5305 8.31801 39.5305C7.76633 39.5305 7.23724 39.7496 6.84708 40.1397C6.05386 41.5716 5.49676 43.1221 5.19722 44.7314C6.80715 44.4306 8.35822 43.8728 9.79102 43.0795C9.98425 42.8869 10.1374 42.6579 10.2417 42.4058C10.346 42.1537 10.3993 41.8834 10.3985 41.6106V41.6106Z" fill="white"/>
</svg>
