<svg width="50" height="50" viewBox="0 0 50 50" fill="none" xmlns="http://www.w3.org/2000/svg">
<path d="M10.3985 50C11.5049 50 12.5661 49.4732 13.3484 48.5355C14.1308 47.5979 14.5703 46.3261 14.5703 45V30C14.5703 28.6739 14.1308 27.4021 13.3484 26.4645C12.5661 25.5268 11.5049 25 10.3985 25V22.5C10.3985 17.8587 11.9369 13.4075 14.6752 10.1256C17.4135 6.84374 21.1274 5 25 5C28.8726 5 32.5865 6.84374 35.3248 10.1256C38.0631 13.4075 39.6015 17.8587 39.6015 22.5V25C38.4951 25 37.4339 25.5268 36.6516 26.4645C35.8692 27.4021 35.4297 28.6739 35.4297 30V45H29.1719C28.6186 45 28.0881 45.2634 27.6969 45.7322C27.3057 46.2011 27.0859 46.837 27.0859 47.5C27.0859 48.163 27.3057 48.7989 27.6969 49.2678C28.0881 49.7366 28.6186 50 29.1719 50H39.6015C41.992 49.9914 44.3075 48.9989 46.1604 47.1886C48.0132 45.3783 49.291 42.8601 49.7797 40.0556C50.2684 37.2511 49.9385 34.3304 48.8451 31.7827C47.7517 29.2349 45.9612 27.2146 43.7734 26.06V22.5C43.7734 16.5326 41.7955 10.8097 38.2748 6.5901C34.7541 2.37053 29.979 0 25 0C20.021 0 15.2459 2.37053 11.7252 6.5901C8.20453 10.8097 6.22662 16.5326 6.22662 22.5V26.06C4.03881 27.2146 2.24834 29.2349 1.15494 31.7827C0.0615363 34.3304 -0.26842 37.2511 0.220307 40.0556C0.709033 42.8601 1.98678 45.3783 3.83963 47.1886C5.69248 48.9989 8.00798 49.9914 10.3985 50V50Z" fill="white"/>
</svg>
