<svg width="50" height="51" viewBox="0 0 50 51" fill="none" xmlns="http://www.w3.org/2000/svg">
<path d="M7.17773 0.727427C5.39062 0.971605 3.64257 1.88971 2.32421 3.27664C1.14257 4.51707 0.36132 6.05051 0.107414 7.69138C0.0390549 8.11137 -7.62939e-06 14.1181 -7.62939e-06 25.7117C-7.62939e-06 42.2767 0.009758 43.1362 0.185539 43.9762C0.537102 45.6952 1.32812 47.1115 2.58788 48.3128C3.83788 49.5044 5.05859 50.149 6.68945 50.4811C7.52929 50.6569 8.39843 50.6667 24.9609 50.6667C40.3613 50.6667 42.4512 50.6472 43.1641 50.5104C44.834 50.1979 46.1426 49.5239 47.3828 48.3421C48.6816 47.1017 49.4629 45.705 49.8144 43.9762C49.9902 43.1362 50 42.2767 50 25.6629C50 9.04901 49.9902 8.1895 49.8144 7.34953C49.4629 5.62075 48.6816 4.22405 47.3828 2.98363C46.1426 1.80181 44.834 1.12788 43.1641 0.815331C42.4512 0.678592 40.4004 0.659058 24.9121 0.668825C15.3223 0.678592 7.34374 0.707893 7.17773 0.727427ZM29.1309 11.5982C30.5664 11.735 31.6699 12.0377 32.793 12.5847C33.6328 12.9949 33.9355 13.2 34.5605 13.8251C35.8887 15.1535 36.3672 16.4232 36.3769 18.6794C36.3769 19.8417 36.3476 20.1542 36.1523 20.7793C35.5957 22.5667 34.4824 23.8462 32.7148 24.735L32.1875 25.0085L33.0566 25.282C34.248 25.6726 34.8926 26.0633 35.6934 26.8838C36.4941 27.6944 36.9824 28.5442 37.3633 29.8139C37.6074 30.6246 37.6367 30.8297 37.6367 32.4022C37.6465 33.7696 37.6074 34.2384 37.4707 34.7463C36.6992 37.5104 34.5898 39.3564 31.2305 40.2256C29.541 40.6554 28.623 40.6945 20.8789 40.7042H13.5742V26.1024V11.5006H20.8789C24.8926 11.5006 28.6035 11.5494 29.1309 11.5982Z" fill="white"/>
<path d="M18.6523 19.6952V23.7095H23.2812C27.5391 23.7095 27.959 23.6899 28.5059 23.5239C29.6289 23.1723 30.5664 22.4104 30.957 21.5314C31.5137 20.2714 31.3769 18.152 30.6738 17.1167C30.3613 16.6478 29.6582 16.1497 28.9746 15.9251C28.5254 15.7786 27.8906 15.7493 23.5644 15.72L18.6523 15.6907V19.6952Z" fill="white"/>
<path d="M18.6523 31.9627V36.5044H23.6621C27.7246 36.5044 28.7793 36.4751 29.2773 36.3579C31.4062 35.8598 32.6172 34.2384 32.6172 31.9139C32.6172 30.1069 31.8066 28.6516 30.4101 27.9679C29.3652 27.4503 28.9941 27.421 23.6133 27.421H18.6523V31.9627Z" fill="white"/>
</svg>
