<svg width="50" height="50" viewBox="0 0 50 50" fill="none" xmlns="http://www.w3.org/2000/svg">
<g clip-path="url(#clip0_3_12)">
<path d="M25 0C11.2146 0 0 10.5604 0 23.5417C0 28.8667 3.6625 31.25 7.29167 31.25C9.40833 31.25 11.5167 30.0729 13.9583 28.7083C14.7167 28.2854 15.4979 27.8479 16.3125 27.4292C15.1292 32.675 14.5854 37.3125 14.5854 39.5833C14.5854 45.3271 19.2583 50 25.0021 50C30.7458 50 35.4187 45.3271 35.4187 39.5833C35.4187 37.3125 34.875 32.675 33.6917 27.4292C34.5042 27.8479 35.2875 28.2854 36.0458 28.7083C38.4875 30.0729 40.5958 31.25 42.7125 31.25C47.2771 31.25 50.0042 28.3687 50.0042 23.5417C50 10.5604 38.7854 0 25 0ZM33.3333 39.5833C33.3333 44.1792 29.5958 47.9167 25 47.9167C20.4042 47.9167 16.6667 44.1792 16.6667 39.5833C16.6667 37.2042 17.3083 32.0375 18.7146 26.3146C20.6125 25.5458 22.6854 25 25 25C27.3146 25 29.3875 25.5458 31.2854 26.3146C32.6917 32.0375 33.3333 37.2042 33.3333 39.5833ZM42.7083 29.1667C41.1354 29.1667 39.2458 28.1104 37.0583 26.8896C33.8896 25.1187 29.9458 22.9167 25 22.9167C20.0542 22.9167 16.1104 25.1187 12.9417 26.8896C10.7542 28.1104 8.8625 29.1667 7.29167 29.1667C4.775 29.1667 2.08333 27.6896 2.08333 23.5417C2.08333 11.7104 12.3646 2.08333 25 2.08333C37.6354 2.08333 47.9167 11.7104 47.9167 23.5417C47.9167 28.4375 44.6542 29.1667 42.7083 29.1667Z" fill="white"/>
</g>
<defs>
<clipPath id="clip0_3_12">
<rect width="50" height="50" fill="white"/>
</clipPath>
</defs>
</svg>
