<svg width="50" height="50" viewBox="0 0 50 50" fill="none" xmlns="http://www.w3.org/2000/svg">
<path d="M14.2724 50C12.6819 49.9927 11.1345 49.466 9.85221 48.4955C8.54179 47.5448 7.56397 46.1833 7.06419 44.6134C6.56441 43.0436 6.56938 41.3493 7.07836 39.7825L9.51668 32.0044L3.09786 27.1644C1.81085 26.1946 0.854229 24.8299 0.364864 23.2655C-0.124501 21.7011 -0.121534 20.0172 0.373342 18.4546C0.868217 16.8921 1.82964 15.531 3.12006 14.5661C4.41048 13.6012 5.96377 13.0819 7.55769 13.0826H15.4145L17.8007 5.4098C18.2904 3.83857 19.2511 2.46819 20.5443 1.496C21.8375 0.523813 23.3965 0 24.9969 0C26.5972 0 28.1562 0.523813 29.4495 1.496C30.7427 2.46819 31.7033 3.83857 32.193 5.4098V5.4098L34.5876 13.0826H42.4444C44.0381 13.0824 45.5911 13.6019 46.8812 14.567C48.1713 15.5321 49.1324 16.8932 49.627 18.4557C50.1216 20.0181 50.1244 21.7019 49.635 23.266C49.1456 24.8302 48.189 26.1947 46.9021 27.1644L40.4854 32.0044L42.9237 39.7825C43.4153 41.3515 43.4117 43.0408 42.9134 44.6076C42.4152 46.1743 41.4479 47.5377 40.1507 48.5016C38.8535 49.4655 37.2933 49.9802 35.6945 49.9718C34.0957 49.9634 32.5407 49.4322 31.2531 48.4547L25.001 43.7135L18.7489 48.4568C17.4553 49.4519 15.8863 49.9928 14.2724 50V50ZM7.55769 19.5303C7.28261 19.5303 7.01456 19.6199 6.79184 19.7864C6.56913 19.9529 6.40314 20.1877 6.31761 20.4574C6.23208 20.727 6.23138 21.0176 6.31561 21.2877C6.39984 21.5577 6.56469 21.7934 6.7866 21.9611L15.031 28.1745C15.5619 28.5748 15.9568 29.1376 16.1596 29.7828C16.3624 30.428 16.3628 31.1227 16.1606 31.768L13.0345 41.762C12.9478 42.0331 12.9469 42.3256 13.032 42.5972C13.1171 42.8689 13.2838 43.1056 13.5079 43.2731C13.7321 43.4406 14.002 43.5302 14.2789 43.529C14.5557 43.5278 14.8249 43.4359 15.0477 43.2664L23.1525 37.1175C23.6894 36.71 24.3386 36.4903 25.0052 36.4903C25.6718 36.4903 26.321 36.71 26.8579 37.1175L34.9627 43.2643C35.1852 43.4353 35.4549 43.5286 35.7323 43.5305C36.0098 43.5324 36.2807 43.4429 36.5054 43.2749C36.73 43.107 36.8969 42.8695 36.9815 42.597C37.0662 42.3244 37.0642 42.0311 36.9759 41.7598L33.8498 31.7659C33.6477 31.1205 33.648 30.4258 33.8508 29.7806C34.0536 29.1355 34.4485 28.5727 34.9794 28.1724L43.2217 21.9589C43.4435 21.7914 43.6083 21.5559 43.6926 21.286C43.7768 21.0162 43.7763 20.7258 43.691 20.4562C43.6058 20.1867 43.4401 19.9519 43.2178 19.7852C42.9954 19.6185 42.7276 19.5286 42.4527 19.5281H32.2952C31.6331 19.528 30.9881 19.311 30.4533 18.9085C29.9184 18.506 29.5213 17.9388 29.3192 17.2886L26.2515 7.3785C26.167 7.10727 26.0012 6.87069 25.778 6.70286C25.5547 6.53502 25.2856 6.44459 25.0094 6.44459C24.7331 6.44459 24.464 6.53502 24.2408 6.70286C24.0176 6.87069 23.8518 7.10727 23.7673 7.3785L20.6767 17.2908C20.4748 17.9399 20.0787 18.5064 19.5451 18.9088C19.0115 19.3112 18.368 19.5287 17.7069 19.5303H7.55769Z" fill="white"/>
</svg>
