<svg width="50" height="50" viewBox="0 0 50 50" fill="none" xmlns="http://www.w3.org/2000/svg">
<g clip-path="url(#clip0_1_13)">
<path d="M24.0018 0.0280229C23.944 0.0315256 23.7478 0.0420335 23.5639 0.0525413C20.1086 0.243434 16.676 1.17513 13.5919 2.76007C10.1786 4.51489 7.22417 7.02277 4.91769 10.1226C1.22066 15.0893 -0.486866 21.2697 0.122591 27.4781C0.609456 32.4326 2.58494 37.1541 5.77233 40.9807C6.64098 42.0245 7.71278 43.1121 8.73905 43.993C12.1891 46.9545 16.4011 48.9212 20.8844 49.6655C21.7373 49.8074 22.606 49.9037 23.6077 49.9685C24.0718 49.9982 25.9177 49.9982 26.3835 49.9685C27.2732 49.9107 27.9807 49.8371 28.7215 49.7268C32.0263 49.2329 35.2102 48.0718 38.056 46.3257C40.7548 44.669 43.1699 42.4606 45.0648 39.9124C46.6813 37.7391 47.9194 35.3485 48.7653 32.7688C50.0595 28.8179 50.338 24.5149 49.5692 20.394C48.8179 16.3765 47.0858 12.6007 44.5201 9.3958C43.9194 8.64449 43.4448 8.11909 42.6637 7.33801C42.0403 6.71454 41.7706 6.46235 41.2609 6.02452C37.303 2.62872 32.387 0.560422 27.1891 0.105081C26.4869 0.0437848 26.1891 0.0315256 25.1664 0.0280229C24.5832 0.0245203 24.0595 0.0245203 24.0018 0.0280229ZM30.1401 8.7916C31.0841 8.81962 31.7881 8.8634 32.4693 8.9317C32.8109 8.96673 33.1716 9.01226 33.2627 9.02977L33.31 9.04028V11.69V14.3415L31.4326 14.3485C29.5849 14.3538 29.5499 14.3538 29.3082 14.394C28.1208 14.5832 27.5832 15.0298 27.3503 16.0158C27.2417 16.4746 27.2434 16.3888 27.2382 18.9702L27.2312 21.331H30.0088C31.5359 21.331 32.7846 21.3345 32.7846 21.3398C32.7846 21.3643 32.0123 27.2119 32.0053 27.2469L31.9965 27.2855H29.6147H27.2329V34.7723V42.2592H24.1506H21.0683V34.7723V27.2855H18.5552H16.042V24.3082V21.331H18.5552H21.0683V18.8914C21.0683 16.4711 21.0771 15.9562 21.1313 15.4466C21.3695 13.1384 22.2644 11.4413 23.8809 10.2242C24.697 9.60771 25.6708 9.18389 26.7863 8.95797C27.2084 8.87216 27.5867 8.82487 28.1786 8.78634C28.3748 8.77233 29.6252 8.77583 30.1401 8.7916Z" fill="white"/>
</g>
<defs>
<clipPath id="clip0_1_13">
<rect width="50" height="50" fill="white"/>
</clipPath>
</defs>
</svg>
