<svg width="50" height="51" viewBox="0 0 50 51" fill="none" xmlns="http://www.w3.org/2000/svg">
<path d="M9.68611 0.988132C4.08285 1.59214 -0.0147658 4.72315 0.00429289 8.37187C0.0233516 9.72782 0.366408 10.6277 1.37652 11.885C2.34851 13.0807 4.31156 14.338 6.17931 14.942C8.65694 15.731 9.11435 15.7679 16.4138 15.7679H22.951V8.31024V0.852537L16.8141 0.864864C13.4216 0.877191 10.2198 0.926498 9.68611 0.988132Z" fill="white"/>
<path d="M27.1439 8.31024V15.7803L34.0622 15.7433C40.7327 15.7063 40.9995 15.694 42.2002 15.4228C45.5927 14.6339 48.299 12.9081 49.4425 10.8003C50.0334 9.72782 50.1668 7.61994 49.7284 6.52286C49.0423 4.80944 47.1746 3.09601 44.9066 2.13453C44.3157 1.87566 43.096 1.50586 42.2002 1.2963L40.5802 0.914174L33.8716 0.877193L27.1439 0.827886V8.31024Z" fill="white"/>
<path d="M8.48541 18.6771C4.67367 19.3427 1.52899 21.389 0.347348 23.9776C-0.0910023 24.9514 -0.0910023 26.8004 0.347348 27.7742C1.30028 29.8575 3.47297 31.5955 6.17931 32.4584C8.676 33.2473 8.98093 33.272 16.3376 33.272H22.951V25.8759V18.4798L16.2423 18.4922C11.0012 18.4922 9.28587 18.5415 8.48541 18.6771Z" fill="white"/>
<path d="M35.625 18.6647C31.6989 19.3673 28.478 21.4629 27.4297 24.0269C27.0676 24.9021 27.0676 26.8497 27.4297 27.7249C27.5822 28.0947 28.0206 28.822 28.4017 29.3274C29.7549 31.0778 32.6137 32.557 35.7203 33.087C37.0734 33.3212 40.0847 33.3212 41.4379 33.087C45.4402 32.3967 48.6611 30.3135 49.7284 27.7249C50.0905 26.8497 50.0905 24.9021 49.7284 24.0269C48.6611 21.4382 45.4402 19.355 41.4379 18.6647C40.1419 18.4428 36.921 18.4428 35.625 18.6647Z" fill="white"/>
<path d="M8.65693 36.1811C4.73084 36.8344 1.52898 38.8807 0.347345 41.4693C-0.16724 42.628 -0.110064 44.4154 0.518873 45.6604C1.71957 48.0025 4.57837 49.8145 8.27576 50.5418C10.0673 50.8993 12.7546 50.9239 14.4698 50.6034C17.5573 50.0117 20.3399 48.5572 21.674 46.8314C22.8938 45.229 22.951 44.9331 22.951 40.212V35.9839L16.3376 35.9962C11.2108 35.9962 9.4574 36.0455 8.65693 36.1811Z" fill="white"/>
</svg>
