<svg width="101" height="101" viewBox="0 0 101 101" fill="none" xmlns="http://www.w3.org/2000/svg">
<path d="M47.9032 0.848621C45.8437 1.12271 44.4333 1.53384 42.1723 2.51271L40.068 3.43286L22.2038 19.0166C9.68981 29.9409 4.04847 34.9723 3.37688 35.8729C1.29495 38.6333 0.46666 41.1001 0.46666 44.487C0.46666 47.3062 0.869613 48.7941 2.41427 51.5349C3.42165 53.3361 3.80222 53.8059 5.59312 55.3526C8.27948 57.7019 10.5405 58.8374 14.2342 59.6988C16.3162 60.1686 20.2785 60.1295 22.5843 59.5813C26.0094 58.7786 30.4195 56.4489 31.9418 54.6478L32.4567 54.0409L32.5686 70.858C32.6805 87.401 32.7029 87.6751 33.173 89.1826C34.9639 94.7034 39.9785 98.9714 46.3362 100.381C48.4629 100.851 52.4924 100.851 54.6191 100.381C60.059 99.1867 64.3795 96.0347 66.7301 91.571C68.3195 88.5757 68.2524 89.4762 68.3195 70.8776L68.4091 54.0996L69.3269 54.9806C75.1921 60.5406 85.9823 61.6369 92.8549 57.3495C95.0488 55.979 97.2202 53.8255 98.4515 51.7894C99.9513 49.2835 100.444 47.5019 100.466 44.5849C100.489 41.1001 99.6379 38.555 97.6008 35.8729C96.9292 35.0115 90.8849 29.5885 78.7515 19.0166L60.8873 3.41328L58.5367 2.41483C57.2383 1.86665 55.5369 1.29891 54.731 1.14228C52.8058 0.750734 49.5822 0.613691 47.9032 0.848621ZM52.761 7.11344C53.4102 7.23091 54.6639 7.64204 55.5146 8.03359C56.9473 8.67965 58.4919 9.95219 73.7146 23.2258C82.8482 31.2134 90.773 38.2418 91.2879 38.8682C94.5115 42.7446 94.019 47.9522 90.1238 51.2217C86.833 53.9625 82.2214 54.6086 78.0799 52.9054C76.7815 52.3963 75.9309 51.7503 71.8789 48.2263C69.2821 45.9749 66.842 43.9976 66.4391 43.8214C64.872 43.1166 62.9468 43.5864 61.8051 44.9373C61.335 45.4855 61.335 45.5638 61.2231 66.3747C61.1111 87.2052 61.1111 87.264 60.6186 88.282C59.8575 89.9461 59.1187 90.925 57.8203 92.0017C51.9999 96.7982 42.9782 94.7034 40.0904 87.8513C39.9337 87.4402 39.8218 80.8425 39.7322 66.3747C39.6203 45.5638 39.6203 45.4855 39.1502 44.9373C37.9413 43.5081 35.9489 43.097 34.3595 43.9193C33.9342 44.1542 31.8075 45.8966 29.6584 47.7956C24.3081 52.5334 21.8903 53.8842 18.7339 53.8842C15.4879 53.8842 12.9134 52.9837 10.7644 51.0846C7.27209 48.0501 6.53335 43.9584 8.74959 40.0037C9.28686 39.0836 12.018 36.5777 25.9423 24.3613C35.0759 16.354 43.1349 9.40402 43.8737 8.91458C44.6124 8.42514 45.575 7.87697 46.0004 7.72035C48.0375 6.93724 50.5896 6.72189 52.761 7.11344Z" fill="white"/>
</svg>
