<svg width="50" height="50" viewBox="0 0 50 50" fill="none" xmlns="http://www.w3.org/2000/svg">
<path d="M35.4763 8.40625C32.6247 6.28333 29.6782 4.08958 26.6983 1.47917L25.0017 0L23.3383 1.48125C17.9822 6.19375 15.4491 13.4313 14.3513 17.7729C13.5088 16.6293 12.8837 15.3734 12.5001 14.0542L11.4855 10.6438L8.55554 13.0542C3.42519 17.2792 0.000989003 21.4687 0.000989003 28.1771C-0.0483395 33.0178 1.74887 37.7341 5.10708 41.5767C8.46529 45.4192 13.1919 48.1677 18.5359 49.3854C19.8786 49.6837 21.246 49.8892 22.6254 50C19.6343 49.5113 16.9321 48.1215 14.986 46.0711C13.0399 44.0206 11.9723 41.4383 11.9679 38.7708C11.9679 34.0833 15.1925 31.6875 18.9256 28.8917C20.2587 27.8979 21.7771 26.7708 23.3098 25.4188L25.0017 23.9438L26.6841 25.4188C28.0528 26.6188 29.4215 27.6354 30.7451 28.6229C34.4901 31.4083 38.026 34.0396 38.026 38.7708C38.0222 41.4278 36.9632 44.0007 35.0309 46.0475C33.0987 48.0944 30.4138 49.4875 27.4374 49.9875C33.6169 49.4618 39.3517 46.937 43.5231 42.9054C47.6945 38.8738 50.0036 33.6245 50 28.1813C50 19.2188 43.268 14.2083 35.4763 8.40625Z" fill="white"/>
</svg>
