<svg width="50" height="50" viewBox="0 0 50 50" fill="none" xmlns="http://www.w3.org/2000/svg">
<g clip-path="url(#clip0_7_31)">
<path d="M16.0655 1.57266C8.27877 4.64212 2.37976 11.6696 0.570725 20.0702C-1.86754 30.9749 3.71687 43.4142 13.3126 48.5031C17.5599 50.7648 18.661 50.5225 18.661 47.3722C18.661 44.8682 18.5037 44.7066 15.8295 44.6259C13.0766 44.5451 10.0092 42.5257 10.0092 40.7487C10.0092 40.1832 9.30127 39.1332 8.43608 38.3254C7.57089 37.5176 6.86301 36.5483 6.86301 36.1445C6.86301 34.7713 8.51473 35.579 11.5036 38.3254C15.043 41.6372 17.2453 41.8795 19.0543 39.2947C20.1555 37.5984 20.1555 37.4369 18.5037 36.7907C12.6834 34.6097 11.4249 33.7212 10.3238 31.0556C8.98666 27.7438 8.82935 20.8779 10.0878 19.5855C10.6384 19.0201 11.1103 17.0007 11.189 14.9814C11.2676 12.962 11.5822 11.0234 11.8968 10.7003C12.2115 10.3772 13.5486 10.6195 14.9643 11.1849C18.661 12.8004 30.1445 12.8812 34.2344 11.4272C36.0435 10.781 37.7739 10.4579 38.0885 10.781C38.4031 11.0234 38.639 12.962 38.7177 14.9814C38.7964 17.0007 39.2683 19.0201 39.8188 19.5855C41.0773 20.8779 40.92 27.7438 39.5829 31.0556C38.4817 33.802 35.8862 35.579 31.7962 36.6291C29.9872 37.033 29.7512 37.3561 30.4591 38.7293C30.8523 39.537 31.2456 42.4449 31.2456 45.1105C31.2456 50.684 31.7962 51.0071 36.5941 48.5031C43.3583 44.949 48.9427 36.5483 49.8865 28.39C50.7517 20.3125 46.5831 10.1348 40.3694 5.20755C33.7625 0.0379319 23.6162 -1.4968 16.0655 1.57266Z" fill="white"/>
</g>
<defs>
<clipPath id="clip0_7_31">
<rect width="50" height="50" fill="white"/>
</clipPath>
</defs>
</svg>
