<svg width="44" height="50" viewBox="0 0 44 50" fill="none" xmlns="http://www.w3.org/2000/svg">
<path d="M0.515632 0.0878868C0.378913 0.126949 0.212897 0.263668 0.134772 0.410152C0.00781915 0.634762 0.193366 2.88086 1.92188 22.3242C2.97657 34.248 3.87501 44.1406 3.9043 44.3262C3.9336 44.5117 4.08009 44.7852 4.2168 44.9414C4.46094 45.2148 5.05665 45.4004 12.8691 47.5781C20.1055 49.5898 21.3652 49.9219 21.9512 49.9219C22.5469 49.9219 23.6895 49.6289 31.082 47.5781C39.2656 45.3027 39.5391 45.2148 39.793 44.9121C39.9395 44.7461 40.0762 44.4434 40.1055 44.248C40.1348 44.0527 41.0234 34.1699 42.0781 22.2754C43.8067 2.88086 43.9922 0.634762 43.8652 0.410152C43.7871 0.263668 43.6211 0.126949 43.4844 0.0878868C43.1621 -3.82215e-06 0.837897 -3.82215e-06 0.515632 0.0878868ZM35.3692 9.30664C35.8184 9.53125 35.8281 9.61914 35.6426 11.8848C35.5449 13.0566 35.4375 14.1797 35.4082 14.375L35.3496 14.7461H25.2813C18.5234 14.7461 15.0957 14.7852 14.8418 14.8535C14.2461 15.0195 14.2363 15.1172 14.4609 17.6367C14.6563 19.7656 14.6758 19.873 14.9199 20.1074L15.1641 20.3613L24.7832 20.4102C33.7383 20.459 34.4121 20.4687 34.5977 20.625C34.7051 20.7227 34.793 20.918 34.793 21.0645C34.793 21.7285 33.4063 36.8848 33.3281 37.0801C33.2793 37.1973 33.1328 37.3633 33.0059 37.4414C32.752 37.6074 22.2637 40.5566 21.9512 40.5469C21.8438 40.5469 19.3828 39.8828 16.4824 39.0723C11.3652 37.6562 11.1992 37.5977 10.8965 37.2656C10.5254 36.8652 10.5645 37.0801 10.1836 32.7344C9.91993 29.7266 9.9004 29.3652 10.0274 29.1113C10.1152 28.9551 10.252 28.8086 10.3301 28.7695C10.418 28.7402 11.4922 28.7109 12.7129 28.7109C15.6035 28.7109 15.4473 28.5937 15.6524 30.957C15.7793 32.4414 15.916 32.9004 16.2871 33.1445C16.4043 33.2227 17.7422 33.623 19.2461 34.0234L21.9805 34.7656L24.6856 34.0332C26.1797 33.6328 27.4981 33.2324 27.625 33.1543C28.1035 32.8418 28.1524 32.6562 28.3965 29.9707C28.709 26.6016 28.709 26.4355 28.3867 26.1816C28.1231 25.9766 28.084 25.9766 19.1191 25.9766H10.1152L9.86134 25.7422C9.72462 25.6152 9.57813 25.4004 9.54884 25.2734C9.51954 25.1562 9.18751 21.6309 8.81641 17.4512C8.10352 9.44335 8.11329 9.51171 8.56251 9.29687C8.88477 9.13086 35.0567 9.14062 35.3692 9.30664Z" fill="white"/>
</svg>
