<svg width="50" height="50" viewBox="0 0 50 50" fill="none" xmlns="http://www.w3.org/2000/svg">
<path d="M13.8889 0C6.23056 0 0 6.23056 0 13.8889V36.1111C0 43.7694 6.23056 50 13.8889 50H36.1111C43.7694 50 50 43.7694 50 36.1111V13.8889C50 6.23056 43.7694 0 36.1111 0H13.8889ZM13.8889 5.55556H36.1111C40.7056 5.55556 44.4444 9.29444 44.4444 13.8889V36.1111C44.4444 40.7056 40.7056 44.4444 36.1111 44.4444H13.8889C9.29444 44.4444 5.55556 40.7056 5.55556 36.1111V13.8889C5.55556 9.29444 9.29444 5.55556 13.8889 5.55556ZM38.8889 8.33333C38.1522 8.33333 37.4456 8.62599 36.9247 9.14693C36.4038 9.66786 36.1111 10.3744 36.1111 11.1111C36.1111 11.8478 36.4038 12.5544 36.9247 13.0753C37.4456 13.5962 38.1522 13.8889 38.8889 13.8889C39.6256 13.8889 40.3321 13.5962 40.8531 13.0753C41.374 12.5544 41.6667 11.8478 41.6667 11.1111C41.6667 10.3744 41.374 9.66786 40.8531 9.14693C40.3321 8.62599 39.6256 8.33333 38.8889 8.33333ZM25 11.1111C17.3417 11.1111 11.1111 17.3417 11.1111 25C11.1111 32.6583 17.3417 38.8889 25 38.8889C32.6583 38.8889 38.8889 32.6583 38.8889 25C38.8889 17.3417 32.6583 11.1111 25 11.1111ZM25 16.6667C29.5944 16.6667 33.3333 20.4056 33.3333 25C33.3333 29.5944 29.5944 33.3333 25 33.3333C20.4056 33.3333 16.6667 29.5944 16.6667 25C16.6667 20.4056 20.4056 16.6667 25 16.6667Z" fill="white"/>
</svg>
