<svg width="50" height="50" viewBox="0 0 50 50" fill="none" xmlns="http://www.w3.org/2000/svg">
<g clip-path="url(#clip0_2_16)">
<path d="M25 0V4.0404H45.9596V45.9596H25V50H50V0H25Z" fill="white"/>
<path d="M4.0404 45.9596V4.0404H25V0H0V50H25V45.9596H4.0404Z" fill="white"/>
<path d="M12.8609 16.8875H12.906C15.2848 16.8875 16.7639 15.3116 16.7639 13.3419C16.7193 11.329 15.2848 9.79778 12.9506 9.79778C10.6169 9.79778 9.09091 11.329 9.09091 13.3419C9.09091 15.3116 10.5735 16.8875 12.8609 16.8875Z" fill="white"/>
<path d="M26.9091 40.2022V28.7451C26.9091 28.1303 26.956 27.5209 27.1354 27.0825C27.629 25.8554 28.7493 24.5883 30.6344 24.5883C33.103 24.5883 34.0885 26.47 34.0885 29.2267V40.2021H40.9091V28.4379C40.9091 22.137 37.5447 19.2058 33.0562 19.2058C29.4328 19.2058 27.8155 21.1997 26.9091 22.5943V22.6615H26.8644C26.8764 22.6394 26.8954 22.6169 26.9091 22.5943V19.6874H20.0872C20.1786 21.6119 20.0872 40.2021 20.0872 40.2021H26.9091V40.2022Z" fill="white"/>
<path d="M16.3154 19.6875H9.49657V40.2022H16.3154V19.6875Z" fill="white"/>
</g>
<defs>
<clipPath id="clip0_2_16">
<rect width="50" height="50" fill="white"/>
</clipPath>
</defs>
</svg>
