<svg width="50" height="50" viewBox="0 0 50 50" fill="none" xmlns="http://www.w3.org/2000/svg">
<path d="M33.3621 50C28.6924 49.9973 24.0752 49.2607 19.8087 47.8376C15.5422 46.4145 11.7211 44.3365 8.59203 41.7379C5.43931 39.1362 3.06063 36.0616 1.6138 32.7181C0.166973 29.3746 -0.314916 25.8387 0.200107 22.345C1.03042 16.9077 4.19432 11.8199 9.21548 7.84739C14.2366 3.8749 20.8433 1.2328 28.0407 0.318868C32.6936 -0.21991 37.4418 -0.0748609 42.0208 0.745932C43.2198 0.976878 44.3147 1.44383 45.1922 2.09846C46.0697 2.75309 46.698 3.57162 47.0119 4.46936C47.3259 5.36709 47.3141 6.31142 46.9779 7.20461C46.6418 8.09781 45.9933 8.90744 45.0997 9.54971C32.4284 18.2285 33.5288 31.7237 47.3422 39.5692C48.3188 40.1439 49.0722 40.9043 49.5239 41.7713C49.9756 42.6384 50.1092 43.5803 49.9106 44.4991C49.712 45.418 49.1885 46.2801 48.3947 46.9958C47.6009 47.7116 46.5658 48.2547 45.397 48.5688C41.5117 49.5204 37.4495 50.0035 33.3621 50V50ZM33.5733 4.1687C32.0131 4.16588 30.4551 4.25434 28.9133 4.43327C22.9209 5.19306 17.4198 7.39156 13.2382 10.6978C9.05654 14.0041 6.42059 18.2393 5.72711 22.7658C5.29362 25.6824 5.69311 28.6348 6.89903 31.4268C8.10495 34.2187 10.0897 36.7863 12.7213 38.9588C16.5736 42.0413 21.5364 44.2195 27.0075 45.229C32.4786 46.2385 38.2229 46.036 43.5436 44.6461C43.7729 44.5816 43.9755 44.4729 44.1307 44.3309C44.286 44.1889 44.3884 44.0186 44.4276 43.8374C44.4668 43.6562 44.4414 43.4704 44.354 43.2988C44.2666 43.1273 44.1202 42.9762 43.9298 42.8607C27.4544 33.532 26.1456 16.8494 41.2955 6.51026C41.4694 6.38925 41.5948 6.23429 41.6576 6.0628C41.7204 5.8913 41.7182 5.71007 41.6512 5.53947C41.5935 5.3584 41.4708 5.19262 41.2964 5.06007C41.1221 4.92751 40.9027 4.83323 40.662 4.78742C38.341 4.3677 35.9608 4.15995 33.5733 4.1687V4.1687Z" fill="white"/>
</svg>
