<svg width="50" height="51" viewBox="0 0 50 51" fill="none" xmlns="http://www.w3.org/2000/svg">
<path d="M17.0078 16.6575C15.8011 16.6386 14.6384 16.2015 13.7184 15.4207C11.7994 13.6618 10.6368 11.2282 10.4747 8.63081C9.96845 3.44 12.8017 0.377155 15.862 0.0356821C16.5994 -0.0460287 17.3457 0.0213596 18.0565 0.233836C18.7673 0.446313 19.428 0.799536 19.9994 1.27248C20.8519 2.04045 21.544 2.96928 22.0359 4.00556C22.5279 5.04183 22.81 6.16509 22.866 7.31073C23.3327 12.1497 21.0994 16.6575 17.0078 16.6575ZM16.3245 4.16459C15.1225 4.29785 14.4058 6.00313 14.6225 8.21646C14.6829 9.70339 15.2965 11.1142 16.3433 12.1726C16.5416 12.3672 16.8051 12.4815 17.0828 12.4932C17.8141 12.412 18.9911 10.5339 18.7141 7.70425C18.0016 3.81895 16.3766 4.16459 16.3245 4.175V4.16459ZM6.59146 29.1504C5.3847 29.1316 4.22196 28.6944 3.30196 27.9136C1.38297 26.1547 0.2204 23.7211 0.0582939 21.1237C-0.447943 15.9329 2.38532 12.8701 5.44565 12.5286C6.18299 12.4478 6.92905 12.5157 7.6397 12.7281C8.35035 12.9406 9.01116 13.2933 9.58304 13.7654C10.4355 14.5334 11.1276 15.4622 11.6195 16.4985C12.1115 17.5347 12.3936 18.658 12.4496 19.8036C12.9163 24.6426 10.5768 29.1504 6.59146 29.1504ZM5.90814 16.6575C4.70609 16.7908 3.98944 18.4961 4.2061 20.7094C4.26646 22.1963 4.88013 23.6071 5.92689 24.6655C6.12715 24.8573 6.38951 24.971 6.66645 24.9861C7.39769 24.9049 8.57474 23.0268 8.29766 20.1972C7.74559 16.391 5.96022 16.6575 5.90814 16.6679V16.6575ZM32.9908 16.6575C29.4325 16.6825 26.6701 12.1476 27.143 7.30448C27.199 6.15884 27.4811 5.03558 27.9731 3.99931C28.4651 2.96304 29.1572 2.0342 30.0096 1.26623C30.5804 0.796124 31.2397 0.44504 31.9485 0.233694C32.6573 0.0223478 33.4013 -0.0449801 34.1366 0.0356821C37.1969 0.377155 40.0302 3.44 39.5239 8.63081C39.3623 11.2289 38.1997 13.6633 36.2803 15.4228C35.36 16.2028 34.1973 16.6392 32.9908 16.6575ZM31.2908 7.70425C31.0137 10.5256 32.1908 12.4037 32.922 12.4932C33.1945 12.4825 33.4543 12.3755 33.6553 12.1913C34.7021 11.133 35.3158 9.72213 35.3761 8.2352C35.8136 2.77788 31.6658 3.13393 31.2908 7.70425ZM43.4072 29.1504C39.5281 29.1504 37.0865 24.6405 37.5594 19.7974C37.6154 18.6518 37.8975 17.5285 38.3895 16.4922C38.8815 15.456 39.5736 14.5271 40.426 13.7592C40.996 13.2873 41.655 12.9347 42.3639 12.7223C43.0729 12.5098 43.8172 12.4418 44.553 12.5224C47.6133 12.8638 50.4466 15.9267 49.9403 21.1175C49.7787 23.7156 48.6161 26.15 46.6967 27.9095C45.7772 28.6917 44.6144 29.1304 43.4072 29.1504ZM41.7072 20.1972C41.4301 23.0185 42.6072 24.8966 43.3384 24.9861C43.6101 24.9718 43.8688 24.8653 44.0717 24.6842C45.1185 23.6259 45.7322 22.2151 45.7925 20.7281C46.0008 18.5148 45.2925 16.8095 44.0905 16.6763C44.0384 16.6575 41.9051 16.4722 41.7072 20.1972ZM33.3324 49.972C31.5516 50.0075 29.793 49.5722 28.2346 48.7102C27.2372 48.185 26.1267 47.9105 24.9993 47.9105C23.8719 47.9105 22.7614 48.185 21.764 48.7102C15.4871 52.2269 8.17058 48.3625 8.33308 39.5612C8.33308 29.9104 17.7224 20.8218 24.9993 20.8218C32.2762 20.8218 41.6655 29.9083 41.6655 39.5612C41.6655 45.6911 38.2385 49.972 33.3324 49.972ZM24.9993 43.7255C26.7798 43.6905 28.5381 44.125 30.0971 44.9852C34.7574 47.5213 37.5719 44.0836 37.499 39.5612C37.499 32.5235 30.1638 24.9861 24.9993 24.9861C19.8349 24.9861 12.4996 32.5235 12.4996 39.5612C12.433 44.0774 15.2246 47.5213 19.9015 44.9852C21.4605 44.125 23.2188 43.6905 24.9993 43.7255Z" fill="white"/>
</svg>
