<svg width="51" height="51" viewBox="0 0 51 51" fill="none" xmlns="http://www.w3.org/2000/svg">
<path d="M22.8108 0.964204C14.9881 1.77639 8.13347 6.03303 3.9679 12.6675C-0.794152 20.2414 -1.07772 30.0561 3.23452 37.8942C4.37859 39.9785 5.70844 41.7594 7.43921 43.5012C9.49266 45.5855 11.5559 47.0729 14.2058 48.3743C16.7482 49.6171 19.183 50.3607 22.1263 50.7815C23.2899 50.9479 27.1328 50.9381 28.3355 50.7717C34.4079 49.9302 39.5611 47.249 43.6973 42.7673C47.1197 39.0489 49.3003 34.3225 50.063 28.9895C50.2292 27.8348 50.2292 23.9794 50.063 22.8247C49.4861 18.754 48.1953 15.2998 46.0539 12.0706C45.1543 10.7006 44.2449 9.58511 42.9737 8.30323C39.0721 4.34994 34.2416 1.91338 28.6778 1.09141C27.475 0.915277 24.0037 0.836995 22.8108 0.964204ZM33.7234 7.02135C36.9991 7.35405 39.4633 8.62615 40.4998 10.5441C41.3212 12.051 41.2625 14.2821 40.3531 16.4642C39.3557 18.8616 36.7645 21.4841 34.1634 22.7171C30.7312 24.3512 25.754 24.8307 23.3877 23.7543C22.1947 23.2161 21.3147 22.4137 21.0409 21.6015C20.7671 20.8089 21.0996 20.7111 21.8036 21.3667C22.9574 22.4431 24.8642 22.8639 27.1621 22.5409C30.741 22.0419 33.9678 20.4469 36.1484 18.118C38.329 15.789 38.9939 13.0785 37.7423 11.6107C36.2364 9.84932 32.0317 9.50683 27.6021 10.7887C26.2332 11.1899 24.9718 11.6792 23.3877 12.4424C16.0735 15.975 12.3577 20.1142 13.2182 23.7935C13.6289 25.545 14.7339 26.7878 18.3127 29.5277C18.9092 29.9876 19.7697 30.7215 20.2391 31.1716L21.0898 31.9936L21.7058 31.837C23.2606 31.4554 25.6074 31.3771 27.0252 31.6707C30.037 32.297 32.1882 34.6357 32.0317 37.1016C31.9633 38.0703 31.6699 38.7064 30.9659 39.3522C30.389 39.8904 29.636 40.2622 29.3623 40.1644C29.108 40.0665 29.196 39.9295 29.7729 39.4892C30.565 38.8923 30.917 38.2856 30.9561 37.4636C31.0539 35.6435 29.5089 34.0387 27.0643 33.4418C25.9789 33.1776 24.2091 33.0896 23.1628 33.2363C22.0187 33.4027 22.0676 33.3538 22.2925 34.0583C22.6934 35.3598 22.6836 37.2875 22.2632 38.8238C21.344 42.2193 18.0389 44.8027 14.6458 44.7929C13.7951 44.7831 12.8075 44.6167 12.4359 44.421C12.0546 44.2155 11.4288 43.4131 11.2039 42.8456C11.0376 42.415 10.9887 42.0921 10.9887 41.3191C10.979 39.7828 11.4288 38.6868 12.5826 37.4343C13.8049 36.1132 16.4353 34.254 18.6941 33.1287L19.1634 32.8841L18.743 32.5416C18.5083 32.3557 17.4816 31.612 16.4548 30.8976C12.6315 28.2165 11.0279 26.7193 10.0207 24.8503C9.05264 23.04 9.08197 21.5918 10.1478 19.3901C11.9666 15.6227 16.5233 11.9336 22.6152 9.27198C26.9959 7.36383 30.3499 6.68864 33.7234 7.02135Z" fill="white"/>
<path d="M19.1928 34.8216C16.0735 36.6025 14.1765 38.7357 13.9027 40.7515C13.8342 41.3288 14.02 41.867 14.3916 42.1117C14.597 42.2389 14.8023 42.2682 15.3597 42.2291C17.4718 42.0823 19.7306 39.91 20.3271 37.4538C20.552 36.5242 20.4444 34.4497 20.1608 34.3519C20.1119 34.3323 19.6719 34.5476 19.1928 34.8216Z" fill="white"/>
</svg>
