<svg width="50" height="50" viewBox="0 0 50 50" fill="none" xmlns="http://www.w3.org/2000/svg">
<path d="M48.0546 35.8281L39.0513 44.026C34.8165 47.8802 29.3307 50.001 23.6051 50.001H2.08507C0.932027 50.001 0 49.0698 0 47.9177C0 46.7656 0.932027 45.8344 2.08507 45.8344H23.603C28.2881 45.8344 32.7752 44.099 36.2406 40.9448L45.173 32.8156C45.8966 32.0906 46.0696 30.849 45.4983 30.0573C45.123 29.5385 44.5767 29.226 43.9554 29.174C43.3486 29.1344 42.746 29.3448 42.3123 29.7781L33.4841 37.874C32.3624 38.9323 30.8528 39.5844 29.191 39.5844H18.7656C17.6126 39.5844 16.6806 38.6531 16.6806 37.501C16.6806 36.349 17.6126 35.4177 18.7656 35.4177H29.191C29.7164 35.4177 31.2761 35.1781 31.2761 33.3344C31.2761 32.1844 30.3419 31.251 29.191 31.251H18.9491C13.9387 31.251 9.22435 33.2031 5.67973 36.7427L3.59883 38.9365C3.18807 39.3677 2.63761 39.5865 2.08507 39.5865C1.57006 39.5865 1.05296 39.3969 0.650542 39.0156C-0.183486 38.2219 -0.218932 36.9031 0.573394 36.0698L2.69391 33.8385C7.0663 29.4719 12.8253 27.0885 18.9512 27.0885H29.1931C31.7702 27.0885 33.9887 28.6552 34.9458 30.8844L39.4308 26.7719C40.663 25.5365 42.4666 24.8656 44.2911 25.024C46.1259 25.1698 47.8002 26.1177 48.8845 27.624C50.6443 30.0698 50.2877 33.5948 48.0567 35.8302L48.0546 35.8281ZM8.35279 4.50521C8.26522 3.29479 8.71142 2.10313 9.57881 1.23854C10.4441 0.371876 11.6368 -0.0822908 12.8503 0.0135426C18.849 0.436459 22.8273 2.50313 25.0208 6.49688C27.2164 2.50313 31.1927 0.436459 37.1935 0.0135426C38.4258 -0.0864574 39.5997 0.371876 40.4629 1.23854C41.3303 2.10313 41.7765 3.29479 41.6889 4.50729C41.0404 13.701 36.5179 18.1427 27.1059 18.6906V20.8323C27.1059 21.9844 26.1739 22.9156 25.0208 22.9156C23.8678 22.9156 22.9358 21.9844 22.9358 20.8323V18.6906C13.5238 18.1406 9.00125 13.701 8.35279 4.50521ZM27.1726 14.5177C34.1806 14.051 37.0434 11.1073 37.5313 4.21354C30.5901 4.65938 27.6397 7.51562 27.1726 14.5177ZM12.5542 4.16771C13.0004 11.1031 15.859 14.051 22.867 14.5177C22.3999 7.51562 19.4537 4.65521 12.5542 4.16771Z" fill="white"/>
</svg>
