<svg width="50" height="50" viewBox="0 0 50 50" fill="none" xmlns="http://www.w3.org/2000/svg">
<path d="M47.9167 22.9167H39.4167C39.2544 21.7688 38.9543 20.6448 38.5229 19.5687L45.8708 15.3104C46.1164 15.1783 46.3329 14.9981 46.5076 14.7808C46.6823 14.5634 46.8115 14.3131 46.8877 14.0448C46.9639 13.7766 46.9854 13.4957 46.951 13.219C46.9166 12.9422 46.827 12.6752 46.6875 12.4337C46.548 12.1922 46.3615 11.9812 46.1389 11.8132C45.9163 11.6452 45.6623 11.5235 45.3918 11.4555C45.1214 11.3874 44.84 11.3744 44.5644 11.4171C44.2889 11.4598 44.0247 11.5574 43.7875 11.7042L36.4333 15.9687C35.7303 15.0807 34.9271 14.2767 34.0396 13.5729L38.3021 6.21667C38.5588 5.73969 38.6196 5.1815 38.4717 4.66044C38.3237 4.13938 37.9787 3.69641 37.5097 3.42546C37.0407 3.15451 36.4845 3.07688 35.9593 3.20903C35.434 3.34117 34.9808 3.6727 34.6958 4.13333L30.4312 11.4771C29.3554 11.0453 28.2313 10.7452 27.0833 10.5833V2.08333C27.0833 1.5308 26.8638 1.00089 26.4731 0.610194C26.0824 0.219493 25.5525 0 25 0C24.4475 0 23.9176 0.219493 23.5269 0.610194C23.1362 1.00089 22.9167 1.5308 22.9167 2.08333V10.5833C21.7687 10.7452 20.6446 11.0453 19.5687 11.4771L15.3104 4.12917C15.0254 3.66854 14.5723 3.33701 14.047 3.20486C13.5217 3.07272 12.9656 3.15035 12.4966 3.4213C12.0276 3.69225 11.6825 4.13521 11.5346 4.65627C11.3867 5.17734 11.4475 5.73553 11.7042 6.2125L15.9667 13.5729C15.0792 14.2767 14.2759 15.0807 13.5729 15.9687L6.21875 11.7042C5.98159 11.5574 5.71739 11.4598 5.4418 11.4171C5.16622 11.3744 4.88486 11.3874 4.61441 11.4555C4.34396 11.5235 4.08992 11.6452 3.86736 11.8132C3.64479 11.9812 3.45823 12.1922 3.31873 12.4337C3.17923 12.6752 3.08963 12.9422 3.05524 13.219C3.02085 13.4957 3.04238 13.7766 3.11854 14.0448C3.1947 14.3131 3.32395 14.5634 3.49862 14.7808C3.6733 14.9981 3.88984 15.1783 4.13542 15.3104L11.4771 19.5687C11.0457 20.6448 10.7456 21.7688 10.5833 22.9167H2.08333C1.5308 22.9167 1.00089 23.1362 0.610194 23.5269C0.219493 23.9176 0 24.4475 0 25C0 25.5525 0.219493 26.0824 0.610194 26.4731C1.00089 26.8638 1.5308 27.0833 2.08333 27.0833H10.5833C10.7456 28.2312 11.0457 29.3552 11.4771 30.4312L4.12917 34.6896C3.88359 34.8217 3.66705 35.0019 3.49237 35.2192C3.3177 35.4366 3.18845 35.6869 3.11229 35.9552C3.03613 36.2234 3.0146 36.5043 3.04899 36.781C3.08338 37.0578 3.17298 37.3248 3.31248 37.5663C3.45198 37.8078 3.63854 38.0188 3.86111 38.1868C4.08367 38.3548 4.33771 38.4765 4.60816 38.5445C4.87861 38.6126 5.15997 38.6256 5.43555 38.5829C5.71114 38.5402 5.97534 38.4426 6.2125 38.2958L13.5667 34.0312C14.2697 34.9193 15.0729 35.7233 15.9604 36.4271L11.7042 43.7833C11.4475 44.2603 11.3867 44.8185 11.5346 45.3396C11.6825 45.8606 12.0276 46.3036 12.4966 46.5745C12.9656 46.8455 13.5217 46.9231 14.047 46.791C14.5723 46.6588 15.0254 46.3273 15.3104 45.8667L19.5687 38.5187C20.6447 38.9511 21.7688 39.2526 22.9167 39.4167V47.9167C22.9167 48.4692 23.1362 48.9991 23.5269 49.3898C23.9176 49.7805 24.4475 50 25 50C25.5525 50 26.0824 49.7805 26.4731 49.3898C26.8638 48.9991 27.0833 48.4692 27.0833 47.9167V39.4167C28.2311 39.2539 29.3551 38.9538 30.4312 38.5229L34.6896 45.8708C34.9746 46.3315 35.4277 46.663 35.953 46.7951C36.4783 46.9273 37.0344 46.8496 37.5034 46.5787C37.9724 46.3077 38.3175 45.8648 38.4654 45.3437C38.6133 44.8227 38.5525 44.2645 38.2958 43.7875L34.0333 36.4312C34.9208 35.7274 35.7241 34.9235 36.4271 34.0354L43.7812 38.3C44.0184 38.4467 44.2826 38.5443 44.5582 38.5871C44.8338 38.6298 45.1151 38.6167 45.3856 38.5487C45.656 38.4807 45.9101 38.359 46.1326 38.191C46.3552 38.0229 46.5418 37.8119 46.6813 37.5704C46.8208 37.329 46.9104 37.0619 46.9448 36.7852C46.9791 36.5084 46.9576 36.2276 46.8815 35.9593C46.8053 35.6911 46.676 35.4408 46.5014 35.2234C46.3267 35.006 46.1102 34.8259 45.8646 34.6937L38.5167 30.4354C38.9505 29.3584 39.2527 28.2328 39.4167 27.0833H47.9167C48.4692 27.0833 48.9991 26.8638 49.3898 26.4731C49.7805 26.0824 50 25.5525 50 25C50 24.4475 49.7805 23.9176 49.3898 23.5269C48.9991 23.1362 48.4692 22.9167 47.9167 22.9167ZM25 35.4167C11.2333 34.9792 11.2375 15.0187 25 14.5833C38.7667 15.0208 38.7625 34.9812 25 35.4167Z" fill="white"/>
</svg>
