<svg width="50" height="50" viewBox="0 0 50 50" fill="none" xmlns="http://www.w3.org/2000/svg">
<path d="M29.429 11.6751L1.88051 39.2284C0.748591 40.4421 0.132083 42.0479 0.160914 43.7073C0.189745 45.3667 0.861664 46.9501 2.03506 48.1238C3.20846 49.2975 4.79167 49.9698 6.45104 49.999C8.11041 50.0282 9.71631 49.4121 10.9303 48.2804L38.4851 20.7313L29.429 11.6751ZM32.5745 20.7313L27.1697 26.1362L24.0347 22.9907L29.4395 17.5858L32.5745 20.7313ZM7.975 45.3293C7.5525 45.732 6.99119 45.9567 6.40749 45.9567C5.82379 45.9567 5.26248 45.732 4.83997 45.3293C4.42493 44.9131 4.19184 44.3494 4.19184 43.7617C4.19184 43.174 4.42493 42.6103 4.83997 42.1942L21.0773 25.9544L24.2228 29.0999L7.975 45.3293ZM44.5859 30.5734L50.1599 33.3616L44.5859 36.1581L41.7999 41.7218L39.0139 36.1581L33.4398 33.3616L39.0139 30.5734L41.7999 25.0013L44.5859 30.5734ZM13.9336 11.1463L8.35957 8.36025L13.9336 5.57419L16.7196 0L19.5056 5.57419L25.0797 8.36025L19.5056 11.1463L16.7196 16.7205L13.9336 11.1463ZM40.4058 9.75432L35.5298 7.31521L40.4058 4.87611L42.8449 0L45.2839 4.87611L50.1599 7.31521L45.2839 9.75432L42.8449 14.6304L40.4058 9.75432Z" fill="white"/>
</svg>
