<svg width="50" height="50" viewBox="0 0 55 55" fill="none" xmlns="http://www.w3.org/2000/svg">
<path d="M27.5349 0C12.3919 0 0.0645883 12.3155 0.0590878 27.457C0.0563375 32.297 1.32417 37.022 3.7279 41.1855L0 55L14.3906 51.6001C18.4032 53.7891 22.9203 54.9382 27.5188 54.9409H27.5295C42.6698 54.9409 54.9917 42.6226 55 27.4839C55.0055 20.1441 52.1511 13.2433 46.964 8.05127C41.777 2.86202 34.8836 0.00275 27.5349 0ZM27.5295 5.5C33.4041 5.50275 38.9248 7.79294 43.075 11.9399C47.2252 16.0924 49.505 21.61 49.4995 27.4785C49.494 39.5895 39.6418 49.4409 27.5242 49.4409C23.8581 49.4382 20.2266 48.5177 17.028 46.7715L15.1748 45.7617L13.1282 46.2451L7.71364 47.5234L9.03506 42.6143L9.63131 40.4121L8.49253 38.4355C6.57284 35.1135 5.55687 31.3153 5.55962 27.457C5.56512 15.3515 15.4201 5.5 27.5295 5.5ZM17.8123 14.7812C17.353 14.7812 16.6104 14.9531 15.9806 15.6406C15.3507 16.3254 13.5741 17.9838 13.5741 21.3608C13.5741 24.7378 16.0343 28.0022 16.3781 28.4614C16.7191 28.9179 21.1269 36.0669 28.1043 38.8169C33.9019 41.1021 35.0794 40.6511 36.339 40.5356C37.5986 40.4229 40.4026 38.8786 40.9747 37.2754C41.5467 35.6721 41.5481 34.293 41.3776 34.0098C41.2071 33.7238 40.7491 33.5532 40.0615 33.2095C39.3767 32.8657 36.0019 31.2087 35.3721 30.9805C34.7423 30.7522 34.2816 30.6367 33.8251 31.3242C33.3685 32.0117 32.0565 33.5533 31.6549 34.0098C31.2534 34.469 30.8546 34.5308 30.167 34.187C29.4794 33.8405 27.2687 33.1139 24.645 30.7764C22.6043 28.9586 21.2273 26.7158 20.8258 26.0283C20.427 25.3436 20.7882 24.9675 21.1319 24.6265C21.44 24.3185 21.8141 23.8248 22.1579 23.4233C22.499 23.0218 22.6172 22.7358 22.8455 22.2793C23.0738 21.8228 22.9569 21.4199 22.7864 21.0762C22.6159 20.7324 21.2805 17.3429 20.67 15.9844C20.1557 14.8431 19.6125 14.8166 19.123 14.7974C18.7242 14.7809 18.2688 14.7812 17.8123 14.7812Z" fill="white"/>
</svg>
